<svg width="12" height="7" viewBox="0 0 12 7" fill="none" xmlns="http://www.w3.org/2000/svg">
<path fill-rule="evenodd" clip-rule="evenodd" d="M0.861216 0.528914C0.986241 0.403927 1.15579 0.333713 1.33257 0.333713C1.50936 0.333713 1.6789 0.403927 1.80393 0.528914L5.99947 4.72446L10.195 0.528914C10.2565 0.465238 10.3301 0.414446 10.4114 0.379505C10.4928 0.344564 10.5802 0.326173 10.6688 0.325404C10.7573 0.324634 10.8451 0.341503 10.927 0.375025C11.009 0.408548 11.0834 0.458052 11.146 0.52065C11.2086 0.583249 11.2581 0.657687 11.2916 0.739622C11.3251 0.821557 11.342 0.909347 11.3412 0.997871C11.3405 1.0864 11.3221 1.17388 11.2871 1.25522C11.2522 1.33656 11.2014 1.41013 11.1377 1.47163L6.47083 6.13853C6.3458 6.26351 6.17626 6.33373 5.99947 6.33373C5.82269 6.33373 5.65314 6.26351 5.52811 6.13853L0.861216 1.47163C0.736229 1.3466 0.666016 1.17706 0.666016 1.00027C0.666016 0.823486 0.736229 0.653939 0.861216 0.528914Z" fill="#367BF2"/>
</svg>
