<svg width="16" height="16" viewBox="0 0 16 16" fill="none" xmlns="http://www.w3.org/2000/svg">
<path fill-rule="evenodd" clip-rule="evenodd" d="M2.66597 2C2.84279 2 3.01236 2.07024 3.13739 2.19527C3.26242 2.3203 3.33267 2.48988 3.33267 2.6667V3.3334H4.66606V2.6667C4.66606 2.48988 4.73631 2.3203 4.86134 2.19527C4.98637 2.07024 5.15594 2 5.33276 2C5.50958 2 5.67916 2.07024 5.80419 2.19527C5.92922 2.3203 5.99946 2.48988 5.99946 2.6667V3.3334H7.33286V2.6667C7.33286 2.48988 7.4031 2.3203 7.52813 2.19527C7.65316 2.07024 7.82274 2 7.99956 2C8.17638 2 8.34596 2.07024 8.47099 2.19527C8.59602 2.3203 8.66626 2.48988 8.66626 2.6667V3.3334H9.99966V2.6667C9.99966 2.48988 10.0699 2.3203 10.1949 2.19527C10.32 2.07024 10.4895 2 10.6664 2C10.8432 2 11.0128 2.07024 11.1378 2.19527C11.2628 2.3203 11.3331 2.48988 11.3331 2.6667V3.3334H12.6665V2.6667C12.6665 2.48988 12.7367 2.3203 12.8617 2.19527C12.9868 2.07024 13.1563 2 13.3332 2C13.51 2 13.6796 2.07024 13.8046 2.19527C13.9296 2.3203 13.9999 2.48988 13.9999 2.6667V12.0005C13.9999 12.5309 13.7891 13.0397 13.414 13.4148C13.0389 13.7899 12.5302 14.0006 11.9998 14.0006H3.99936C3.46891 14.0006 2.96017 13.7899 2.58508 13.4148C2.20999 13.0397 1.99927 12.5309 1.99927 12.0005V2.6667C1.99927 2.48988 2.06951 2.3203 2.19454 2.19527C2.31957 2.07024 2.48915 2 2.66597 2ZM12.6665 4.6668H3.33267V12.0005C3.33267 12.1773 3.40291 12.3469 3.52794 12.4719C3.65297 12.5969 3.82255 12.6672 3.99936 12.6672H11.9998C12.1766 12.6672 12.3462 12.5969 12.4712 12.4719C12.5962 12.3469 12.6665 12.1773 12.6665 12.0005V4.6668ZM8.66626 6.66689C8.66626 6.84371 8.59602 7.01329 8.47099 7.13832C8.34596 7.26335 8.17638 7.33359 7.99956 7.33359C7.82274 7.33359 7.65316 7.26335 7.52813 7.13832C7.4031 7.01329 7.33286 6.84371 7.33286 6.66689C7.33286 6.49007 7.4031 6.3205 7.52813 6.19547C7.65316 6.07044 7.82274 6.00019 7.99956 6.00019C8.17638 6.00019 8.34596 6.07044 8.47099 6.19547C8.59602 6.3205 8.66626 6.49007 8.66626 6.66689ZM10.6664 7.33359C10.8432 7.33359 11.0128 7.26335 11.1378 7.13832C11.2628 7.01329 11.3331 6.84371 11.3331 6.66689C11.3331 6.49007 11.2628 6.3205 11.1378 6.19547C11.0128 6.07044 10.8432 6.00019 10.6664 6.00019C10.4895 6.00019 10.32 6.07044 10.1949 6.19547C10.0699 6.3205 9.99966 6.49007 9.99966 6.66689C9.99966 6.84371 10.0699 7.01329 10.1949 7.13832C10.32 7.26335 10.4895 7.33359 10.6664 7.33359ZM5.99946 8.66699C5.99946 8.84381 5.92922 9.01339 5.80419 9.13842C5.67916 9.26345 5.50958 9.33369 5.33276 9.33369C5.15594 9.33369 4.98637 9.26345 4.86134 9.13842C4.73631 9.01339 4.66606 8.84381 4.66606 8.66699C4.66606 8.49017 4.73631 8.32059 4.86134 8.19556C4.98637 8.07053 5.15594 8.00029 5.33276 8.00029C5.50958 8.00029 5.67916 8.07053 5.80419 8.19556C5.92922 8.32059 5.99946 8.49017 5.99946 8.66699ZM7.99956 9.33369C8.17638 9.33369 8.34596 9.26345 8.47099 9.13842C8.59602 9.01339 8.66626 8.84381 8.66626 8.66699C8.66626 8.49017 8.59602 8.32059 8.47099 8.19556C8.34596 8.07053 8.17638 8.00029 7.99956 8.00029C7.82274 8.00029 7.65316 8.07053 7.52813 8.19556C7.4031 8.32059 7.33286 8.49017 7.33286 8.66699C7.33286 8.84381 7.4031 9.01339 7.52813 9.13842C7.65316 9.26345 7.82274 9.33369 7.99956 9.33369ZM11.3331 8.66699C11.3331 8.84381 11.2628 9.01339 11.1378 9.13842C11.0128 9.26345 10.8432 9.33369 10.6664 9.33369C10.4895 9.33369 10.32 9.26345 10.1949 9.13842C10.0699 9.01339 9.99966 8.84381 9.99966 8.66699C9.99966 8.49017 10.0699 8.32059 10.1949 8.19556C10.32 8.07053 10.4895 8.00029 10.6664 8.00029C10.8432 8.00029 11.0128 8.07053 11.1378 8.19556C11.2628 8.32059 11.3331 8.49017 11.3331 8.66699ZM5.33276 11.3338C5.50958 11.3338 5.67916 11.2635 5.80419 11.1385C5.92922 11.0135 5.99946 10.8439 5.99946 10.6671C5.99946 10.4903 5.92922 10.3207 5.80419 10.1957C5.67916 10.0706 5.50958 10.0004 5.33276 10.0004C5.15594 10.0004 4.98637 10.0706 4.86134 10.1957C4.73631 10.3207 4.66606 10.4903 4.66606 10.6671C4.66606 10.8439 4.73631 11.0135 4.86134 11.1385C4.98637 11.2635 5.15594 11.3338 5.33276 11.3338ZM8.66626 10.6671C8.66626 10.8439 8.59602 11.0135 8.47099 11.1385C8.34596 11.2635 8.17638 11.3338 7.99956 11.3338C7.82274 11.3338 7.65316 11.2635 7.52813 11.1385C7.4031 11.0135 7.33286 10.8439 7.33286 10.6671C7.33286 10.4903 7.4031 10.3207 7.52813 10.1957C7.65316 10.0706 7.82274 10.0004 7.99956 10.0004C8.17638 10.0004 8.34596 10.0706 8.47099 10.1957C8.59602 10.3207 8.66626 10.4903 8.66626 10.6671ZM10.6664 11.3338C10.8432 11.3338 11.0128 11.2635 11.1378 11.1385C11.2628 11.0135 11.3331 10.8439 11.3331 10.6671C11.3331 10.4903 11.2628 10.3207 11.1378 10.1957C11.0128 10.0706 10.8432 10.0004 10.6664 10.0004C10.4895 10.0004 10.32 10.0706 10.1949 10.1957C10.0699 10.3207 9.99966 10.4903 9.99966 10.6671C9.99966 10.8439 10.0699 11.0135 10.1949 11.1385C10.32 11.2635 10.4895 11.3338 10.6664 11.3338Z" fill="#367BF2"/>
</svg>
