<svg width="24" height="24" viewBox="0 0 24 24" fill="none" xmlns="http://www.w3.org/2000/svg">
<path fill-rule="evenodd" clip-rule="evenodd" d="M12 2.99941C10.8181 2.99941 9.64778 3.2322 8.55585 3.68447C7.46392 4.13674 6.47177 4.79964 5.63604 5.63533C4.80031 6.47101 4.13738 7.46312 3.68508 8.555C3.23279 9.64687 3 10.8171 3 11.999C3 13.1808 3.23279 14.3511 3.68508 15.443C4.13738 16.5348 4.80031 17.5269 5.63604 18.3626C6.47177 19.1983 7.46392 19.8612 8.55585 20.3135C9.64778 20.7658 10.8181 20.9985 12 20.9985C14.3869 20.9985 16.6761 20.0504 18.364 18.3626C20.0518 16.6749 21 14.3858 21 11.999C21 9.61215 20.0518 7.32307 18.364 5.63533C16.6761 3.94758 14.3869 2.99941 12 2.99941ZM1 11.999C1 5.92427 5.925 0.999512 12 0.999512C18.075 0.999512 23 5.92427 23 11.999C23 18.0737 18.075 22.9984 12 22.9984C5.925 22.9984 1 18.0737 1 11.999ZM13.25 7.24921C13.25 7.58071 13.1183 7.89864 12.8839 8.13305C12.6495 8.36746 12.3315 8.49915 12 8.49915C11.6685 8.49915 11.3505 8.36746 11.1161 8.13305C10.8817 7.89864 10.75 7.58071 10.75 7.24921C10.75 6.9177 10.8817 6.59978 11.1161 6.36537C11.3505 6.13096 11.6685 5.99927 12 5.99927C12.3315 5.99927 12.6495 6.13096 12.8839 6.36537C13.1183 6.59978 13.25 6.9177 13.25 7.24921ZM11 9.99908C10.7348 9.99908 10.4804 10.1044 10.2929 10.292C10.1054 10.4795 10 10.7338 10 10.999C10 11.2642 10.1054 11.5186 10.2929 11.7061C10.4804 11.8936 10.7348 11.999 11 11.999V16.9987C11 17.2639 11.1054 17.5183 11.2929 17.7058C11.4804 17.8933 11.7348 17.9987 12 17.9987C12.2652 17.9987 12.5196 17.8933 12.7071 17.7058C12.8946 17.5183 13 17.2639 13 16.9987V10.999C13 10.7338 12.8946 10.4795 12.7071 10.292C12.5196 10.1044 12.2652 9.99908 12 9.99908H11Z" fill="#FD9F00"/>
</svg>
