<svg width="24" height="24" viewBox="0 0 24 24" fill="none" xmlns="http://www.w3.org/2000/svg">
<path d="M20.0001 2H8.00006C6.89706 2 6.00006 2.897 6.00006 4V6H4.00006C2.89706 6 2.00006 6.897 2.00006 8V20C2.00006 21.103 2.89706 22 4.00006 22H16.0001C17.1031 22 18.0001 21.103 18.0001 20V18H20.0001C21.1031 18 22.0001 17.103 22.0001 16V4C22.0001 2.897 21.1031 2 20.0001 2ZM16.0001 20H4.00006V8H6.00006V16C6.00006 17.103 6.89706 18 8.00006 18H16.0001V20ZM19.9971 16H8.00006V4H20.0001L19.9971 16Z" fill="#BEC2CD"/>
</svg>
