<svg width="24" height="24" viewBox="0 0 24 24" fill="none" xmlns="http://www.w3.org/2000/svg">
<path fill-rule="evenodd" clip-rule="evenodd" d="M7.99946 10.0004C7.99946 8.93956 8.42088 7.92214 9.17103 7.17199C9.92118 6.42185 10.9386 6.00042 11.9995 6.00042C13.0603 6.00042 14.0777 6.42185 14.8279 7.17199C15.578 7.92214 15.9995 8.93956 15.9995 10.0004V11.0004H16.9995C17.4591 11.0004 17.9142 11.091 18.3388 11.2668C18.7635 11.4427 19.1493 11.7005 19.4743 12.0255C19.7993 12.3506 20.0571 12.7364 20.233 13.161C20.4089 13.5857 20.4995 14.0408 20.4995 14.5004C20.4995 14.96 20.4089 15.4152 20.233 15.8398C20.0571 16.2645 19.7993 16.6503 19.4743 16.9753C19.1493 17.3003 18.7635 17.5581 18.3388 17.734C17.9142 17.9099 17.4591 18.0004 16.9995 18.0004H16.8995C16.6342 18.0004 16.3799 18.1058 16.1924 18.2933C16.0048 18.4809 15.8995 18.7352 15.8995 19.0004C15.8995 19.2656 16.0048 19.52 16.1924 19.7075C16.3799 19.8951 16.6342 20.0004 16.8995 20.0004H16.9995C18.3786 20.0022 19.708 19.4858 20.7243 18.5535C21.7407 17.6213 22.3697 16.3412 22.4867 14.9671C22.6037 13.5929 22.2002 12.2249 21.3561 11.1343C20.512 10.0436 19.289 9.30986 17.9295 9.07842C17.7098 7.66331 16.9914 6.37339 15.9039 5.44165C14.8164 4.50992 13.4315 3.9978 11.9995 3.9978C10.5674 3.9978 9.18255 4.50992 8.09505 5.44165C7.00755 6.37339 6.28909 7.66331 6.06946 9.07842C4.71434 9.315 3.497 10.0506 2.65739 11.1403C1.81778 12.2299 1.41681 13.5946 1.53352 14.9652C1.65023 16.3359 2.27615 17.6131 3.28791 18.5451C4.29966 19.4772 5.62385 19.9964 6.99946 20.0004H7.09946C7.36467 20.0004 7.61903 19.8951 7.80656 19.7075C7.9941 19.52 8.09946 19.2656 8.09946 19.0004C8.09946 18.7352 7.9941 18.4809 7.80656 18.2933C7.61903 18.1058 7.36467 18.0004 7.09946 18.0004H6.99946C6.53983 18.0004 6.0847 17.9099 5.66006 17.734C5.23542 17.5581 4.84959 17.3003 4.52458 16.9753C4.19958 16.6503 3.94177 16.2645 3.76588 15.8398C3.58999 15.4152 3.49946 14.96 3.49946 14.5004C3.49946 14.0408 3.58999 13.5857 3.76588 13.161C3.94177 12.7364 4.19958 12.3506 4.52458 12.0255C4.84959 11.7005 5.23542 11.4427 5.66006 11.2668C6.0847 11.091 6.53983 11.0004 6.99946 11.0004H7.99946V10.0004ZM12.9995 11.0004C12.9995 10.7352 12.8941 10.4809 12.7066 10.2933C12.519 10.1058 12.2647 10.0004 11.9995 10.0004C11.7342 10.0004 11.4799 10.1058 11.2923 10.2933C11.1048 10.4809 10.9995 10.7352 10.9995 11.0004V16.5864L9.70646 15.2934C9.51785 15.1113 9.26525 15.0105 9.00306 15.0127C8.74086 15.015 8.49005 15.1202 8.30464 15.3056C8.11923 15.491 8.01406 15.7418 8.01178 16.004C8.0095 16.2662 8.1103 16.5188 8.29246 16.7074L11.2925 19.7074C11.48 19.8949 11.7343 20.0002 11.9995 20.0002C12.2646 20.0002 12.5189 19.8949 12.7065 19.7074L15.7065 16.7074C15.8886 16.5188 15.9894 16.2662 15.9871 16.004C15.9849 15.7418 15.8797 15.491 15.6943 15.3056C15.5089 15.1202 15.2581 15.015 14.9959 15.0127C14.7337 15.0105 14.4811 15.1113 14.2925 15.2934L12.9995 16.5864V11.0004Z" fill="#212126"/>
</svg>
