<svg width="15" height="12" viewBox="0 0 15 12" fill="none" xmlns="http://www.w3.org/2000/svg">
<path fill-rule="evenodd" clip-rule="evenodd" d="M4.33359 4.66698C4.33359 3.9597 4.61455 3.28139 5.11468 2.78127C5.6148 2.28115 6.29311 2.00018 7.00039 2.00018C7.70766 2.00018 8.38597 2.28115 8.8861 2.78127C9.38622 3.28139 9.66718 3.9597 9.66718 4.66698V5.33368H10.3339C10.6403 5.33368 10.9437 5.39404 11.2269 5.5113C11.51 5.62857 11.7672 5.80045 11.9839 6.01713C12.2006 6.23381 12.3724 6.49105 12.4897 6.77416C12.607 7.05726 12.6673 7.36069 12.6673 7.66713C12.6673 7.97356 12.607 8.27699 12.4897 8.5601C12.3724 8.8432 12.2006 9.10044 11.9839 9.31712C11.7672 9.5338 11.51 9.70568 11.2269 9.82295C10.9437 9.94022 10.6403 10.0006 10.3339 10.0006H10.2672C10.0904 10.0006 9.92081 10.0708 9.79578 10.1958C9.67075 10.3209 9.60051 10.4905 9.60051 10.6673C9.60051 10.8441 9.67075 11.0137 9.79578 11.1387C9.92081 11.2637 10.0904 11.334 10.2672 11.334H10.3339C11.2533 11.3351 12.1397 10.9909 12.8173 10.3693C13.4948 9.74779 13.9142 8.89438 13.9922 7.97823C14.0702 7.06209 13.8012 6.15007 13.2384 5.42292C12.6757 4.69578 11.8603 4.20658 10.9539 4.05228C10.8075 3.10883 10.3285 2.24884 9.60345 1.62765C8.87841 1.00647 7.95514 0.665039 7.00039 0.665039C6.04563 0.665039 5.12236 1.00647 4.39732 1.62765C3.67228 2.24884 3.19329 3.10883 3.04686 4.05228C2.1434 4.21001 1.3318 4.70045 0.772037 5.42692C0.212269 6.1534 -0.0550558 7.06321 0.0227547 7.97703C0.100565 8.89084 0.517866 9.74236 1.1924 10.3637C1.86694 10.9851 2.74977 11.3313 3.66689 11.334H3.73356C3.91038 11.334 4.07996 11.2637 4.20499 11.1387C4.33002 11.0137 4.40026 10.8441 4.40026 10.6673C4.40026 10.4905 4.33002 10.3209 4.20499 10.1958C4.07996 10.0708 3.91038 10.0006 3.73356 10.0006H3.66689C3.36046 10.0006 3.05702 9.94022 2.77392 9.82295C2.49081 9.70568 2.23357 9.5338 2.01689 9.31712C1.80021 9.10044 1.62833 8.8432 1.51107 8.5601C1.3938 8.27699 1.33344 7.97356 1.33344 7.66713C1.33344 7.36069 1.3938 7.05726 1.51107 6.77416C1.62833 6.49105 1.80021 6.23381 2.01689 6.01713C2.23357 5.80045 2.49081 5.62857 2.77392 5.5113C3.05702 5.39404 3.36046 5.33368 3.66689 5.33368H4.33359V4.66698ZM7.66708 5.33368C7.66708 5.15686 7.59684 4.98728 7.47181 4.86225C7.34678 4.73722 7.17721 4.66698 7.00039 4.66698C6.82357 4.66698 6.65399 4.73722 6.52896 4.86225C6.40393 4.98728 6.33369 5.15686 6.33369 5.33368V9.05786L5.47164 8.19582C5.3459 8.07437 5.17749 8.00717 5.00269 8.00869C4.82788 8.01021 4.66066 8.08033 4.53705 8.20394C4.41344 8.32755 4.34333 8.49477 4.34181 8.66957C4.34029 8.84438 4.40749 9.01279 4.52893 9.13853L6.52903 11.1386C6.65405 11.2636 6.8236 11.3338 7.00039 11.3338C7.17717 11.3338 7.34672 11.2636 7.47174 11.1386L9.47184 9.13853C9.59328 9.01279 9.66048 8.84438 9.65896 8.66957C9.65744 8.49477 9.58733 8.32755 9.46372 8.20394C9.34011 8.08033 9.17289 8.01021 8.99808 8.00869C8.82328 8.00717 8.65487 8.07437 8.52913 8.19582L7.66708 9.05786V5.33368Z" fill="#367BF2"/>
</svg>
