<svg width="24" height="24" viewBox="0 0 24 24" fill="none" xmlns="http://www.w3.org/2000/svg">
<path fill-rule="evenodd" clip-rule="evenodd" d="M21.121 2.70746C20.5584 2.14505 19.7955 1.8291 19 1.8291C18.2045 1.8291 17.4416 2.14505 16.879 2.70746L15.199 4.38746L7.293 12.2935C7.16494 12.4215 7.07404 12.5818 7.03 12.7575L6.03 16.7575C5.98803 16.925 5.99018 17.1006 6.03626 17.2671C6.08234 17.4336 6.17077 17.5854 6.29293 17.7075C6.41509 17.8297 6.56681 17.9181 6.73331 17.9642C6.89982 18.0103 7.07542 18.0124 7.243 17.9705L11.243 16.9705C11.4186 16.9264 11.579 16.8355 11.707 16.7075L19.556 8.85946L21.293 7.12146C21.8554 6.55888 22.1714 5.79595 22.1714 5.00046C22.1714 4.20497 21.8554 3.44204 21.293 2.87946L21.121 2.70746ZM18.293 4.12146C18.4805 3.93399 18.7348 3.82867 19 3.82867C19.2652 3.82867 19.5195 3.93399 19.707 4.12146L19.879 4.29346C20.0665 4.48099 20.1718 4.7353 20.1718 5.00046C20.1718 5.26563 20.0665 5.51993 19.879 5.70746L18.862 6.72446L17.307 5.10746L18.293 4.12146ZM15.893 6.52146L17.448 8.13846L10.488 15.0975L8.374 15.6265L8.903 13.5115L15.893 6.52146ZM4 8.00046C4 7.73524 4.10536 7.48089 4.29289 7.29335C4.48043 7.10582 4.73478 7.00046 5 7.00046H10C10.2652 7.00046 10.5196 6.8951 10.7071 6.70757C10.8946 6.52003 11 6.26568 11 6.00046C11 5.73524 10.8946 5.48089 10.7071 5.29335C10.5196 5.10582 10.2652 5.00046 10 5.00046H5C4.20435 5.00046 3.44129 5.31653 2.87868 5.87914C2.31607 6.44175 2 7.20481 2 8.00046V19.0005C2 19.7961 2.31607 20.5592 2.87868 21.1218C3.44129 21.6844 4.20435 22.0005 5 22.0005H16C16.7956 22.0005 17.5587 21.6844 18.1213 21.1218C18.6839 20.5592 19 19.7961 19 19.0005V14.0005C19 13.7352 18.8946 13.4809 18.7071 13.2934C18.5196 13.1058 18.2652 13.0005 18 13.0005C17.7348 13.0005 17.4804 13.1058 17.2929 13.2934C17.1054 13.4809 17 13.7352 17 14.0005V19.0005C17 19.2657 16.8946 19.52 16.7071 19.7076C16.5196 19.8951 16.2652 20.0005 16 20.0005H5C4.73478 20.0005 4.48043 19.8951 4.29289 19.7076C4.10536 19.52 4 19.2657 4 19.0005V8.00046Z" fill="#367BF2"/>
</svg>
