<svg width="19" height="20" viewBox="0 0 19 20" fill="none" xmlns="http://www.w3.org/2000/svg">
<path fill-rule="evenodd" clip-rule="evenodd" d="M9.75 2.60785C8.508 0.174851 4.87 -0.147148 3.327 2.42185C2.99662 2.96488 2.81412 3.58492 2.79763 4.22033C2.78114 4.85575 2.93124 5.48442 3.233 6.04385C2.53742 6.16554 1.90705 6.52871 1.45287 7.06941C0.998685 7.61011 0.749792 8.2937 0.75 8.99985V16.9999C0.75 17.7955 1.06607 18.5586 1.62868 19.1212C2.19129 19.6838 2.95435 19.9999 3.75 19.9999H15.75C16.5456 19.9999 17.3087 19.6838 17.8713 19.1212C18.4339 18.5586 18.75 17.7955 18.75 16.9999V8.99985C18.7502 8.2937 18.5013 7.61011 18.0471 7.06941C17.5929 6.52871 16.9626 6.16554 16.267 6.04385C16.5688 5.48442 16.7189 4.85575 16.7024 4.22033C16.6859 3.58492 16.5034 2.96488 16.173 2.42185C14.63 -0.147148 10.992 0.174851 9.75 2.60785ZM8.532 5.99785L8.129 3.98585C7.828 2.48085 5.832 2.13585 5.042 3.45085C4.37 4.57085 5.175 5.99385 6.48 5.99585L8.532 5.99785ZM8.75 7.99985H3.75C3.48478 7.99985 3.23043 8.10521 3.04289 8.29275C2.85536 8.48028 2.75 8.73463 2.75 8.99985V11.9999H8.75V7.99985ZM8.75 13.9999H2.75V16.9999C2.75 17.2651 2.85536 17.5194 3.04289 17.707C3.23043 17.8945 3.48478 17.9999 3.75 17.9999H8.75V13.9999ZM10.75 17.9999V13.9999H16.75V16.9999C16.75 17.2651 16.6446 17.5194 16.4571 17.707C16.2696 17.8945 16.0152 17.9999 15.75 17.9999H10.75ZM16.75 11.9999H10.75V7.99985H15.75C16.0152 7.99985 16.2696 8.10521 16.4571 8.29275C16.6446 8.48028 16.75 8.73463 16.75 8.99985V11.9999ZM10.968 5.99785L13.02 5.99585C14.325 5.99385 15.13 4.56985 14.458 3.45085C13.668 2.13585 11.672 2.48085 11.371 3.98585L10.968 5.99785Z" fill="#868B97"/>
</svg>
