<svg width="24" height="25" viewBox="0 0 24 25" fill="none" xmlns="http://www.w3.org/2000/svg">
<path fill-rule="evenodd" clip-rule="evenodd" d="M3 14.5005C3 9.53249 7.03 5.50049 12 5.50049C16.97 5.50049 21 9.53249 21 14.5005C21 15.5535 20.67 16.8805 20.071 17.9205C19.464 18.9745 18.738 19.4905 18.019 19.5005C17.535 19.4765 17.179 19.2675 16.515 18.8805C16.371 18.7965 16.213 18.7045 16.037 18.6045C15.087 18.0645 13.87 17.5005 12 17.5005C10.13 17.5005 8.913 18.0635 7.963 18.6045C7.787 18.7045 7.629 18.7965 7.485 18.8805C6.821 19.2675 6.465 19.4765 5.981 19.5005C5.261 19.4905 4.536 18.9745 3.929 17.9205C3.33 16.8805 3 15.5535 3 14.5005ZM12 3.50049C5.925 3.50049 1 8.42849 1 14.5005C1 15.8985 1.42 17.5705 2.196 18.9185C2.959 20.2435 4.225 21.5005 6 21.5005H6.04C7.081 21.4585 7.936 20.9475 8.612 20.5425C8.731 20.4725 8.844 20.4035 8.952 20.3425C9.728 19.9015 10.599 19.5005 12 19.5005C13.401 19.5005 14.272 19.9005 15.048 20.3425C15.156 20.4035 15.268 20.4725 15.388 20.5425C16.064 20.9465 16.918 21.4585 17.96 21.4995L17.98 21.5005H18C19.775 21.5005 21.041 20.2435 21.804 18.9185C22.58 17.5715 23 15.8985 23 14.5005C23 8.42849 18.075 3.50049 12 3.50049ZM16.95 10.9645C17.0455 10.8722 17.1217 10.7619 17.1741 10.6399C17.2265 10.5179 17.2541 10.3867 17.2553 10.2539C17.2564 10.1211 17.2311 9.98943 17.1808 9.86653C17.1305 9.74364 17.0563 9.63199 16.9624 9.53809C16.8685 9.4442 16.7568 9.36995 16.634 9.31967C16.5111 9.26939 16.3794 9.24408 16.2466 9.24524C16.1138 9.24639 15.9826 9.27398 15.8606 9.32639C15.7386 9.3788 15.6282 9.45498 15.536 9.55049L12.518 12.5685C12.0927 12.4545 11.6417 12.484 11.2349 12.6525C10.8282 12.8209 10.4883 13.1189 10.2682 13.5002C10.048 13.8815 9.95984 14.3248 10.0173 14.7613C10.0748 15.1978 10.2747 15.6032 10.586 15.9145C10.8973 16.2258 11.3027 16.4257 11.7392 16.4832C12.1757 16.5406 12.619 16.4525 13.0003 16.2323C13.3816 16.0121 13.6795 15.6723 13.848 15.2655C14.0165 14.8588 14.046 14.4078 13.932 13.9825L16.95 10.9645ZM5 15.5005C5.26522 15.5005 5.51957 15.3951 5.70711 15.2076C5.89464 15.0201 6 14.7657 6 14.5005C6 14.2353 5.89464 13.9809 5.70711 13.7934C5.51957 13.6058 5.26522 13.5005 5 13.5005C4.73478 13.5005 4.48043 13.6058 4.29289 13.7934C4.10536 13.9809 4 14.2353 4 14.5005C4 14.7657 4.10536 15.0201 4.29289 15.2076C4.48043 15.3951 4.73478 15.5005 5 15.5005ZM20 14.5005C20 14.7657 19.8946 15.0201 19.7071 15.2076C19.5196 15.3951 19.2652 15.5005 19 15.5005C18.7348 15.5005 18.4804 15.3951 18.2929 15.2076C18.1054 15.0201 18 14.7657 18 14.5005C18 14.2353 18.1054 13.9809 18.2929 13.7934C18.4804 13.6058 18.7348 13.5005 19 13.5005C19.2652 13.5005 19.5196 13.6058 19.7071 13.7934C19.8946 13.9809 20 14.2353 20 14.5005ZM12 8.50049C12.2652 8.50049 12.5196 8.39513 12.7071 8.20759C12.8946 8.02006 13 7.7657 13 7.50049C13 7.23527 12.8946 6.98092 12.7071 6.79338C12.5196 6.60585 12.2652 6.50049 12 6.50049C11.7348 6.50049 11.4804 6.60585 11.2929 6.79338C11.1054 6.98092 11 7.23527 11 7.50049C11 7.7657 11.1054 8.02006 11.2929 8.20759C11.4804 8.39513 11.7348 8.50049 12 8.50049Z" fill="#6DAE43"/>
</svg>
