<svg width="17" height="17" viewBox="0 0 17 17" fill="none" xmlns="http://www.w3.org/2000/svg">
<path fill-rule="evenodd" clip-rule="evenodd" d="M2.50092 4.5001C2.50092 3.96964 2.71164 3.46091 3.08673 3.08582C3.46182 2.71072 3.97055 2.5 4.50101 2.5H12.5014C13.0319 2.5 13.5406 2.71072 13.9157 3.08582C14.2908 3.46091 14.5015 3.96964 14.5015 4.5001V12.5005C14.5015 13.0309 14.2908 13.5397 13.9157 13.9148C13.5406 14.2899 13.0319 14.5006 12.5014 14.5006H4.50101C3.97055 14.5006 3.46182 14.2899 3.08673 13.9148C2.71164 13.5397 2.50092 13.0309 2.50092 12.5005V4.5001ZM13.1681 4.5001V10.2244L10.9727 8.02894C10.8476 7.90395 10.6781 7.83374 10.5013 7.83374C10.3245 7.83374 10.155 7.90395 10.0299 8.02894L9.16791 8.89098L6.63912 6.36219C6.51409 6.2372 6.34455 6.16699 6.16776 6.16699C5.99098 6.16699 5.82143 6.2372 5.6964 6.36219L3.83431 8.22428V4.5001C3.83431 4.32328 3.90456 4.1537 4.02959 4.02867C4.15462 3.90364 4.32419 3.8334 4.50101 3.8334H12.5014C12.6782 3.8334 12.8478 3.90364 12.9728 4.02867C13.0979 4.1537 13.1681 4.32328 13.1681 4.5001ZM3.83431 12.5005V10.1097L6.16776 7.77626L8.69655 10.305C8.82158 10.43 8.99112 10.5002 9.16791 10.5002C9.34469 10.5002 9.51424 10.43 9.63926 10.305L10.5013 9.443L13.1681 12.1098V12.5005C13.1681 12.6773 13.0979 12.8469 12.9728 12.9719C12.8478 13.0969 12.6782 13.1672 12.5014 13.1672H4.50101C4.32419 13.1672 4.15462 13.0969 4.02959 12.9719C3.90456 12.8469 3.83431 12.6773 3.83431 12.5005ZM10.168 7.16689C10.4332 7.16689 10.6876 7.06153 10.8751 6.87399C11.0626 6.68644 11.168 6.43207 11.168 6.16685C11.168 5.90162 11.0626 5.64725 10.8751 5.4597C10.6876 5.27216 10.4332 5.1668 10.168 5.1668C9.90273 5.1668 9.64836 5.27216 9.46081 5.4597C9.27327 5.64725 9.16791 5.90162 9.16791 6.16685C9.16791 6.43207 9.27327 6.68644 9.46081 6.87399C9.64836 7.06153 9.90273 7.16689 10.168 7.16689Z" fill="#7A5DEB"/>
</svg>
