<svg width="17" height="20" viewBox="0 0 17 20" fill="none" xmlns="http://www.w3.org/2000/svg">
<path d="M14.57 8H13.5V5C13.5 5 13.5 0 8.5 0C3.5 0 3.5 5 3.5 5V8H2.43C1.91813 8 1.42723 8.20334 1.06528 8.56528C0.703339 8.92723 0.5 9.41813 0.5 9.93V18.08C0.502643 18.5901 0.707148 19.0785 1.06881 19.4383C1.43047 19.798 1.91986 20 2.43 20H14.57C15.0819 20 15.5728 19.7967 15.9347 19.4347C16.2967 19.0728 16.5 18.5819 16.5 18.07V9.93C16.5 9.41813 16.2967 8.92723 15.9347 8.56528C15.5728 8.20334 15.0819 8 14.57 8ZM8.5 16C8.10444 16 7.71776 15.8827 7.38886 15.6629C7.05996 15.4432 6.80362 15.1308 6.65224 14.7654C6.50087 14.3999 6.46126 13.9978 6.53843 13.6098C6.6156 13.2219 6.80608 12.8655 7.08579 12.5858C7.36549 12.3061 7.72186 12.1156 8.10982 12.0384C8.49778 11.9613 8.89991 12.0009 9.26537 12.1522C9.63082 12.3036 9.94318 12.56 10.1629 12.8889C10.3827 13.2178 10.5 13.6044 10.5 14C10.5 14.5304 10.2893 15.0391 9.91421 15.4142C9.53914 15.7893 9.03043 16 8.5 16ZM11.5 8H5.5V5.5C5.5 4 5.5 2 8.5 2C11.5 2 11.5 4 11.5 5.5V8Z" fill="#868B97"/>
</svg>
