<svg width="91" height="44" viewBox="0 0 91 44" fill="none" xmlns="http://www.w3.org/2000/svg">
<path d="M6.70961 19.4839C6.70961 17.403 8.40296 15.7097 10.4838 15.7097C12.5646 15.7097 14.258 17.403 14.258 19.4839C14.258 21.5647 12.5646 23.2581 10.4838 23.2581C8.40296 23.2581 6.70961 21.5647 6.70961 19.4839Z" fill="#367BF2"/>
<path fill-rule="evenodd" clip-rule="evenodd" d="M20.9677 32.3768C20.9677 33.8255 19.7933 35 18.3445 35C16.8957 35 15.7213 33.8255 15.7213 32.3768V28.0377C11.5241 29.8484 6.97709 28.7921 5.22823 28.0377V32.3859C5.22823 33.8296 4.05785 35 2.61412 35C1.17038 35 0 33.8296 0 32.3859V19.4073C0 17.9689 0.274208 16.6211 0.822624 15.364C1.37104 14.0948 2.11445 12.9888 3.05285 12.046C4.00343 11.1032 5.11245 10.3598 6.3799 9.8159C7.65954 9.27197 9.02447 9 10.4747 9C11.925 9 13.2839 9.27197 14.5513 9.8159C15.8309 10.3598 16.9461 11.1032 17.8966 12.046C18.8472 12.9888 19.5967 14.0948 20.1451 15.364C20.6936 16.6211 20.9677 17.9689 20.9677 19.4073V32.3768ZM15.7213 19.4073V19.5281C15.7213 20.2413 15.5872 20.9122 15.3191 21.5407C15.0388 22.1813 14.661 22.7374 14.1857 23.2088C13.7104 23.6802 13.1559 24.0489 12.5222 24.3148C11.8763 24.5928 11.1938 24.7318 10.4748 24.7318C9.75572 24.7318 9.07933 24.5928 8.4456 24.3148C7.79971 24.0489 7.23915 23.6802 6.76384 23.2088C6.28852 22.7374 5.91679 22.1813 5.64871 21.5407C5.36839 20.9122 5.22823 20.2413 5.22823 19.5281V19.4073C5.22823 18.6941 5.36229 18.0233 5.6304 17.3947C5.9107 16.7541 6.2885 16.198 6.7638 15.7266C7.23909 15.2552 7.7936 14.8866 8.42732 14.6206C9.07321 14.3426 9.75569 14.2036 10.4747 14.2036C11.1938 14.2036 11.8702 14.3426 12.5039 14.6206C13.1498 14.8866 13.7104 15.2552 14.1857 15.7266C14.661 16.198 15.0327 16.7541 15.3008 17.3947C15.5811 18.0233 15.7213 18.6941 15.7213 19.4073Z" fill="#212126"/>
<path fill-rule="evenodd" clip-rule="evenodd" d="M45.1283 21.7755C45.1283 22.9515 44.9737 24.086 44.6644 25.1787C44.3672 26.2597 43.939 27.2753 43.38 28.2256C42.8212 29.164 42.1551 30.0252 41.3821 30.8092C40.6091 31.5814 39.7469 32.2466 38.7956 32.8049C37.8441 33.3631 36.8214 33.7967 35.7273 34.1055C34.6451 34.4025 33.5153 34.551 32.3379 34.551H27.6316C25.9747 34.551 24.6316 33.2078 24.6316 31.551V12C24.6316 10.3431 25.9747 9 27.6316 9H32.3379C33.5153 9 34.6451 9.15442 35.7273 9.46327C36.8214 9.76023 37.8441 10.1879 38.7956 10.7462C39.7469 11.3045 40.6091 11.9756 41.3821 12.7596C42.1551 13.5317 42.8212 14.3929 43.38 15.3432C43.939 16.2816 44.3672 17.2972 44.6644 18.3901C44.9737 19.471 45.1283 20.5995 45.1283 21.7755ZM39.402 18.7999C39.8064 19.7264 40.0086 20.7183 40.0086 21.7755C40.0086 22.8327 39.8064 23.8305 39.402 24.7689C39.0095 25.6955 38.4626 26.5091 37.7609 27.21C37.0712 27.8989 36.2565 28.4454 35.317 28.8492C34.3894 29.2412 33.3963 29.4373 32.3379 29.4373H30.787C30.2347 29.4373 29.787 28.9895 29.787 28.4373V15.1138C29.787 14.5615 30.2347 14.1138 30.787 14.1138H32.3379C33.3963 14.1138 34.3894 14.3157 35.317 14.7196C36.2565 15.1234 37.0712 15.6758 37.7609 16.3766C38.4626 17.0656 39.0095 17.8733 39.402 18.7999Z" fill="#212126"/>
<path d="M57.4542 34.551C58.9807 34.551 60.3347 33.5709 60.8116 32.1208L67.2263 12.613C67.8119 10.8324 66.4855 9 64.6111 9C63.3956 9 62.3239 9.79716 61.9744 10.9613L57.4436 26.0518L52.9261 10.9529C52.5794 9.79397 51.5131 9 50.3034 9C48.4409 9 47.1221 10.8195 47.7016 12.5895L54.0955 32.1166C54.5711 33.5688 55.9261 34.551 57.4542 34.551Z" fill="#212126"/>
<path d="M77.4779 26.5507V32C77.4779 33.4089 78.62 34.551 80.0288 34.551C81.4377 34.551 82.5798 33.4089 82.5798 32V26.5507C83.7096 26.2657 84.7443 25.8083 85.6837 25.1787C86.6233 24.5491 87.432 23.8008 88.1098 22.9336C88.7876 22.0547 89.311 21.0865 89.6796 20.0293C90.0602 18.9603 90.2504 17.8377 90.2504 16.6617V11.5509C90.2504 10.1421 89.1084 9 87.6995 9C86.2907 9 85.1486 10.1421 85.1486 11.5509V16.6617C85.1486 17.3626 85.0118 18.0278 84.7383 18.6573C84.4767 19.275 84.114 19.8155 83.6501 20.2788C83.1863 20.7421 82.6393 21.1103 82.009 21.3835C81.3905 21.6448 80.7305 21.7755 80.0288 21.7755C79.3273 21.7755 78.6612 21.6448 78.031 21.3835C77.4125 21.1103 76.8714 20.7421 76.4076 20.2788C75.9438 19.8155 75.5751 19.275 75.3016 18.6573C75.04 18.0278 74.9092 17.3626 74.9092 16.6617V11.5598C74.9092 10.1461 73.7631 9 72.3493 9C70.9356 9 69.7895 10.1461 69.7895 11.5598V16.6617C69.7895 17.8377 69.9737 18.9603 70.3425 20.0293C70.7231 21.0865 71.2523 22.0547 71.9301 22.9336C72.6079 23.8008 73.4166 24.5491 74.3562 25.1787C75.3075 25.8083 76.3482 26.2657 77.4779 26.5507Z" fill="#212126"/>
</svg>
