<svg width="14" height="18" viewBox="0 0 14 18" fill="none" xmlns="http://www.w3.org/2000/svg">
<path d="M7.00021 0C3.55596 0 0.753906 2.80246 0.753906 6.2468C0.753906 9.56228 6.42128 17.3084 6.6626 17.6364L6.88781 17.9429C6.91414 17.9789 6.95608 18 7.00021 18C7.04501 18 7.08668 17.9789 7.11329 17.9429L7.33836 17.6364C7.57981 17.3084 13.2471 9.56228 13.2471 6.2468C13.2471 2.80246 10.4445 0 7.00021 0ZM7.00021 4.00921C8.23429 4.00921 9.2378 5.01276 9.2378 6.2468C9.2378 7.48021 8.23425 8.4844 7.00021 8.4844C5.76685 8.4844 4.76261 7.48021 4.76261 6.2468C4.76261 5.01276 5.7668 4.00921 7.00021 4.00921Z" fill="#367BF2"/>
</svg>
