<svg width="24" height="24" viewBox="0 0 24 24" fill="none" xmlns="http://www.w3.org/2000/svg">
<path fill-rule="evenodd" clip-rule="evenodd" d="M8.207 5.18C8.091 5.354 8 5.648 8 6V15C8 15.2652 7.89464 15.5196 7.70711 15.7071C7.51957 15.8946 7.26522 16 7 16C6.73478 16 6.48043 15.8946 6.29289 15.7071C6.10536 15.5196 6 15.2652 6 15V12C6 11.648 5.91 11.354 5.793 11.18C5.697 11.035 5.613 11 5.5 11C5.388 11 5.303 11.035 5.207 11.18C5.091 11.354 5 11.648 5 12V16C5 17.033 5.7 18.14 7.055 19.043C8.387 19.932 10.194 20.5 12 20.5C15.668 20.5 18 18.251 18 16V12C18 11.648 17.91 11.354 17.793 11.18C17.697 11.035 17.613 11 17.5 11C17.388 11 17.303 11.035 17.207 11.18C17.091 11.354 17 11.648 17 12C17 12.2652 16.8946 12.5196 16.7071 12.7071C16.5196 12.8946 16.2652 13 16 13C15.7348 13 15.4804 12.8946 15.2929 12.7071C15.1054 12.5196 15 12.2652 15 12V11C15 10.648 14.91 10.354 14.793 10.18C14.697 10.035 14.613 10 14.5 10C14.388 10 14.303 10.035 14.207 10.18C14.091 10.354 14 10.648 14 11V11.5C14 11.7652 13.8946 12.0196 13.7071 12.2071C13.5196 12.3946 13.2652 12.5 13 12.5C12.7348 12.5 12.4804 12.3946 12.2929 12.2071C12.1054 12.0196 12 11.7652 12 11.5V10.5C12 10.148 11.91 9.854 11.793 9.68C11.697 9.535 11.613 9.5 11.5 9.5C11.388 9.5 11.303 9.535 11.207 9.68C11.091 9.854 11 10.148 11 10.5V11C11 11.2652 10.8946 11.5196 10.7071 11.7071C10.5196 11.8946 10.2652 12 10 12C9.73478 12 9.48043 11.8946 9.29289 11.7071C9.10536 11.5196 9 11.2652 9 11V6C9 5.648 8.91 5.354 8.793 5.18C8.697 5.035 8.613 5 8.5 5C8.388 5 8.303 5.035 8.207 5.18ZM11 7.552V6C11 5.352 10.84 4.646 10.457 4.07C10.053 3.465 9.387 3 8.5 3C7.612 3 6.947 3.465 6.543 4.07C6.159 4.646 6 5.352 6 6V9.052C5.83563 9.01708 5.66803 8.99965 5.5 9C4.612 9 3.947 9.465 3.543 10.07C3.159 10.646 3 11.352 3 12V16C3 17.967 4.3 19.61 5.945 20.707C7.612 21.818 9.806 22.5 12 22.5C16.332 22.5 20 19.749 20 16V12C20 11.352 19.84 10.646 19.457 10.07C19.053 9.465 18.387 9 17.5 9C17.169 8.99782 16.8415 9.06742 16.54 9.204C16.5136 9.15859 16.4859 9.1139 16.457 9.07C16.053 8.465 15.387 8 14.5 8C14.031 8 13.624 8.13 13.286 8.34C13.0702 8.07524 12.7976 7.86231 12.4885 7.71693C12.1794 7.57154 11.8416 7.49741 11.5 7.5C11.325 7.5 11.158 7.518 11 7.552Z" fill="#FD9F00"/>
</svg>
