<svg width="24" height="25" viewBox="0 0 24 25" fill="none" xmlns="http://www.w3.org/2000/svg">
<path fill-rule="evenodd" clip-rule="evenodd" d="M16.0001 6.50045C15.2044 6.50045 14.4413 6.81652 13.8787 7.37913C13.3161 7.94174 13.0001 8.7048 13.0001 9.50045C13.0001 10.2961 13.3161 11.0592 13.8787 11.6218C14.4413 12.1844 15.2044 12.5004 16.0001 12.5004C16.7957 12.5004 17.5588 12.1844 18.1214 11.6218C18.684 11.0592 19.0001 10.2961 19.0001 9.50045C19.0001 8.7048 18.684 7.94174 18.1214 7.37913C17.5588 6.81652 16.7957 6.50045 16.0001 6.50045ZM11.0001 9.50045C11.0001 8.6854 11.1993 7.88272 11.5805 7.16229C11.9616 6.44186 12.5131 5.82552 13.1869 5.36695C13.8607 4.90838 14.6364 4.62148 15.4464 4.53124C16.2565 4.44099 17.0763 4.55013 17.8345 4.84915C18.5927 5.14818 19.2663 5.62802 19.7967 6.2469C20.327 6.86578 20.6981 7.60493 20.8774 8.39998C21.0568 9.19504 21.0391 10.0219 20.8259 10.8086C20.6127 11.5952 20.2104 12.3178 19.6541 12.9134C21.3505 13.4653 22.8172 14.5621 23.8261 16.0334C23.9668 16.2526 24.0164 16.518 23.9645 16.7733C23.9125 17.0285 23.763 17.2534 23.5478 17.4001C23.3326 17.5467 23.0686 17.6037 22.8121 17.5587C22.5555 17.5138 22.3266 17.3706 22.1741 17.1594C21.1981 15.7274 19.4181 14.5004 17.0001 14.5004C13.1661 14.5004 11.0001 17.5744 11.0001 19.5004C11.0001 19.7657 10.8947 20.02 10.7072 20.2076C10.5196 20.3951 10.2653 20.5004 10.0001 20.5004C9.73484 20.5004 9.48049 20.3951 9.29295 20.2076C9.10542 20.02 9.00006 19.7657 9.00006 19.5004C9.00006 18.8084 9.15806 18.0704 9.46006 17.3434C9.38154 17.2926 9.31051 17.231 9.24906 17.1604C8.42806 16.2264 7.15406 15.5004 5.50006 15.5004C3.84606 15.5004 2.57206 16.2264 1.75106 17.1604C1.57329 17.3493 1.32911 17.4617 1.07005 17.4739C0.810993 17.4861 0.557322 17.3972 0.362572 17.2259C0.167821 17.0547 0.0472247 16.8144 0.0262326 16.5559C0.00524061 16.2974 0.085495 16.0409 0.250059 15.8404C0.840576 15.1684 1.55664 14.6181 2.35806 14.2204C1.71777 13.5956 1.27828 12.794 1.09573 11.9181C0.913177 11.0423 0.995852 10.1319 1.33319 9.30323C1.67054 8.47458 2.24723 7.76529 2.98961 7.26597C3.732 6.76665 4.60638 6.49996 5.50106 6.49996C6.39574 6.49996 7.27012 6.76665 8.0125 7.26597C8.75489 7.76529 9.33158 8.47458 9.66892 9.30323C10.0063 10.1319 10.0889 11.0423 9.90639 11.9181C9.72384 12.794 9.28435 13.5956 8.64406 14.2204C9.33782 14.5648 9.96837 15.0239 10.5091 15.5784C11.1882 14.7238 12.0332 14.0153 12.9931 13.4954C12.3736 13.0299 11.871 12.4266 11.5251 11.7332C11.1791 11.0398 10.9994 10.2753 11.0001 9.50045ZM3.00006 11.0004C3.00006 10.3374 3.26345 9.70152 3.73229 9.23268C4.20113 8.76384 4.83702 8.50045 5.50006 8.50045C6.1631 8.50045 6.79899 8.76384 7.26783 9.23268C7.73667 9.70152 8.00006 10.3374 8.00006 11.0004C8.00006 11.6635 7.73667 12.2994 7.26783 12.7682C6.79899 13.2371 6.1631 13.5004 5.50006 13.5004C4.83702 13.5004 4.20113 13.2371 3.73229 12.7682C3.26345 12.2994 3.00006 11.6635 3.00006 11.0004Z" fill="#367BF2"/>
</svg>
