<svg width="24" height="24" viewBox="0 0 24 24" fill="none" xmlns="http://www.w3.org/2000/svg">
<path fill-rule="evenodd" clip-rule="evenodd" d="M12.778 5.93683C16.915 5.81984 20.435 8.94468 20.938 12.9995H21.481C21.5811 12.9995 21.6788 12.9695 21.7617 12.9134C21.8445 12.8573 21.9086 12.7776 21.9456 12.6846C21.9827 12.5917 21.991 12.4898 21.9695 12.3921C21.948 12.2944 21.8976 12.2053 21.825 12.1365L21.71 12.0275C21.5225 11.844 21.4146 11.5942 21.4096 11.3319C21.4046 11.0695 21.5029 10.8158 21.6833 10.6253C21.8637 10.4348 22.1118 10.3228 22.374 10.3135C22.6362 10.3042 22.8916 10.3983 23.085 10.5756L23.2 10.6846C24.842 12.2385 23.742 14.9994 21.481 14.9994H20.914C20.677 16.3593 19.958 17.4553 19 18.4132V21.9991C19 22.2643 18.8946 22.5186 18.7071 22.7061C18.5196 22.8937 18.2652 22.999 18 22.999H15C14.79 22.9991 14.5854 22.933 14.415 22.8103C14.2447 22.6875 14.1173 22.5142 14.051 22.315L13.684 21.2131C13.5662 20.8596 13.3402 20.5522 13.038 20.3343C12.7357 20.1164 12.3726 19.9992 12 19.9992C11.6274 19.9992 11.2643 20.1164 10.962 20.3343C10.6598 20.5522 10.4338 20.8596 10.316 21.2131L9.949 22.315C9.88265 22.5142 9.75528 22.6875 9.58495 22.8103C9.41462 22.933 9.20996 22.9991 9 22.999H6C5.73478 22.999 5.48043 22.8937 5.29289 22.7061C5.10536 22.5186 5 22.2643 5 21.9991V18.9992C5 18.4712 4.603 17.7893 3.724 17.1413C2.876 16.5153 1.792 16.0893 0.894 15.9933C0.64859 15.9672 0.421522 15.8512 0.256483 15.6677C0.091443 15.4842 9.03628e-05 15.2462 0 14.9994V10.9996C9.91486e-05 10.8139 0.0518831 10.632 0.149552 10.4741C0.247222 10.3162 0.386919 10.1886 0.553 10.1056L2.17 9.29667C2.828 7.46676 4.483 6.43081 6 6.10982V2.99997C6.00019 2.76875 6.0805 2.54474 6.22727 2.36607C6.37405 2.1874 6.57821 2.06511 6.805 2.02002L7.125 2.02202C7.417 2.02202 7.71 2.02402 8 2.05602C10.031 2.28301 12.085 4.05192 12.778 5.93583V5.93683ZM8 6.99978V4.07992C9.231 4.4239 10.882 5.61585 11 7.02378C11.0049 7.16121 11.0377 7.29621 11.0966 7.42049C11.1555 7.54477 11.2391 7.65572 11.3424 7.74653C11.4457 7.83735 11.5664 7.90612 11.6972 7.94862C11.828 7.99113 11.9661 8.00648 12.103 7.99373L12.383 7.96573C15.91 7.60175 19 10.4296 19 13.9994C19 15.0144 18.597 15.9893 17.879 16.7063C17.8138 16.7708 17.7474 16.8341 17.68 16.8963C17.352 17.2013 17 17.5303 17 17.9992V20.9991H15.72L15.581 20.5801C15.3303 19.8287 14.8496 19.1752 14.2069 18.7121C13.5642 18.249 12.7922 17.9998 12 17.9998C11.2078 17.9998 10.4358 18.249 9.79308 18.7121C9.15039 19.1752 8.66968 19.8287 8.419 20.5801L8.279 20.9991H7V18.9992C7 17.5273 5.987 16.3253 4.911 15.5314C4.03735 14.8932 3.04905 14.4291 2 14.1644V11.6176L3.447 10.8936C3.57605 10.8291 3.68961 10.7374 3.77989 10.6249C3.87016 10.5123 3.93502 10.3816 3.97 10.2416C4.33 8.80569 5.826 7.99973 7 7.99973C7.26522 7.99973 7.51957 7.89438 7.70711 7.70685C7.89464 7.51932 8 7.26498 8 6.99978ZM7.5 12.9995C7.89782 12.9995 8.27936 12.8415 8.56066 12.5602C8.84196 12.2789 9 11.8974 9 11.4996C9 11.1018 8.84196 10.7202 8.56066 10.439C8.27936 10.1577 7.89782 9.99963 7.5 9.99963C7.10218 9.99963 6.72064 10.1577 6.43934 10.439C6.15804 10.7202 6 11.1018 6 11.4996C6 11.8974 6.15804 12.2789 6.43934 12.5602C6.72064 12.8415 7.10218 12.9995 7.5 12.9995Z" fill="#EC407A"/>
</svg>
