<svg width="16" height="17" viewBox="0 0 16 17" fill="none" xmlns="http://www.w3.org/2000/svg">
<g clip-path="url(#clip0_1066_14749)">
<path d="M15.3333 3.1665V7.1665H11.3333" stroke="#BEC2CD" stroke-width="2" stroke-linecap="round" stroke-linejoin="round"/>
<path d="M0.666748 13.8335V9.8335H4.66675" stroke="#BEC2CD" stroke-width="2" stroke-linecap="round" stroke-linejoin="round"/>
<path d="M2.34008 6.49989C2.67819 5.54441 3.25284 4.69016 4.01039 4.01683C4.76795 3.34351 5.68372 2.87306 6.67227 2.64939C7.66082 2.42572 8.68992 2.45612 9.66354 2.73774C10.6372 3.01936 11.5236 3.54303 12.2401 4.25989L15.3334 7.16655M0.666748 9.83322L3.76008 12.7399C4.47658 13.4567 5.363 13.9804 6.33662 14.262C7.31024 14.5437 8.33934 14.5741 9.32789 14.3504C10.3164 14.1267 11.2322 13.6563 11.9898 12.9829C12.7473 12.3096 13.322 11.4554 13.6601 10.4999" stroke="#BEC2CD" stroke-width="2" stroke-linecap="round" stroke-linejoin="round"/>
</g>
<defs>
<clipPath id="clip0_1066_14749">
<rect width="16" height="16" fill="white" transform="translate(0 0.5)"/>
</clipPath>
</defs>
</svg>
