<svg width="24" height="24" viewBox="0 0 24 24" fill="none" xmlns="http://www.w3.org/2000/svg">
<path fill-rule="evenodd" clip-rule="evenodd" d="M3.72399 8.45212L7.29 7.19418C6.55373 8.18528 5.9214 9.2495 5.403 10.37L3.72399 8.45212ZM1.247 8.65911L4.55 12.4329L4.072 13.6289C3.99925 13.8104 3.98132 14.0092 4.02042 14.2008C4.05952 14.3924 4.15394 14.5683 4.29199 14.7068L4.60699 15.0208C2.90299 16.9407 1.963 18.9496 1.051 21.6835C0.992235 21.8597 0.983708 22.0487 1.02637 22.2295C1.06903 22.4103 1.16119 22.5756 1.29253 22.7069C1.42386 22.8382 1.58918 22.9304 1.76995 22.973C1.95072 23.0157 2.1398 23.0072 2.316 22.9484C5.04999 22.0365 7.059 21.0965 8.979 19.3926L9.293 19.7066C9.43138 19.8448 9.60726 19.9394 9.79886 19.9787C9.99047 20.018 10.1894 20.0002 10.371 19.9276L11.567 19.4496L15.341 22.7524C15.4639 22.8601 15.6114 22.936 15.7705 22.9735C15.9295 23.0109 16.0953 23.0089 16.2534 22.9674C16.4115 22.926 16.557 22.8464 16.6772 22.7357C16.7974 22.625 16.8887 22.4866 16.943 22.3324L19.929 13.8729C21.9123 11.5261 23.0003 8.55278 23 5.48027V2.00044C23 1.73524 22.8946 1.48089 22.7071 1.29337C22.5196 1.10584 22.2652 1.00049 22 1.00049H18.52C15.4478 1.00006 12.4747 2.08763 10.128 4.07034L1.668 7.05719C1.51404 7.11155 1.37573 7.20279 1.26516 7.32292C1.15459 7.44305 1.07512 7.58842 1.03369 7.74635C0.992259 7.90427 0.990129 8.06993 1.02749 8.22887C1.06484 8.38781 1.14055 8.53518 1.248 8.65811L1.247 8.65911ZM3.68499 20.3145C4.31299 18.7986 5.017 17.5927 6.024 16.4377L7.562 17.9757C6.40699 18.9826 5.20099 19.6866 3.68499 20.3145ZM10.241 17.8267L9.707 17.2927L6.707 14.2928L6.173 13.7589L6.883 11.984C7.53457 10.3557 8.44944 8.84561 9.59099 7.51417L10.167 6.8412C11.1998 5.63638 12.4811 4.66929 13.923 4.00632C15.3648 3.34335 16.933 3.00018 18.52 3.00039H21V5.48027C21.0002 7.06716 20.657 8.63531 19.994 10.0771C19.331 11.5188 18.3639 12.8001 17.159 13.8329L16.486 14.4088C15.1545 15.5503 13.6443 16.4651 12.016 17.1167L10.241 17.8267ZM15.548 20.2755L13.63 18.5976C14.7506 18.0793 15.8149 17.447 16.806 16.7107L15.548 20.2755ZM15 8.00015C15 7.73494 15.1054 7.4806 15.2929 7.29307C15.4804 7.10555 15.7348 7.00019 16 7.00019C16.2652 7.00019 16.5196 7.10555 16.7071 7.29307C16.8946 7.4806 17 7.73494 17 8.00015C17 8.26535 16.8946 8.51969 16.7071 8.70722C16.5196 8.89474 16.2652 9.0001 16 9.0001C15.7348 9.0001 15.4804 8.89474 15.2929 8.70722C15.1054 8.51969 15 8.26535 15 8.00015ZM16 5.00029C15.2043 5.00029 14.4413 5.31635 13.8787 5.87893C13.3161 6.44151 13 7.20454 13 8.00015C13 8.79576 13.3161 9.55878 13.8787 10.1214C14.4413 10.6839 15.2043 11 16 11C16.7956 11 17.5587 10.6839 18.1213 10.1214C18.6839 9.55878 19 8.79576 19 8.00015C19 7.20454 18.6839 6.44151 18.1213 5.87893C17.5587 5.31635 16.7956 5.00029 16 5.00029Z" fill="#BEC2CD"/>
</svg>
