<svg width="24" height="24" viewBox="0 0 24 24" fill="none" xmlns="http://www.w3.org/2000/svg">
<path fill-rule="evenodd" clip-rule="evenodd" d="M3.39377 2.20497C3.5456 2.08913 3.72743 2.01919 3.91775 2.00342C4.10807 1.98764 4.29894 2.0267 4.46777 2.11597L21.4678 11.116C21.6285 11.201 21.763 11.3282 21.8569 11.484C21.9507 11.6397 22.0003 11.8181 22.0003 12C22.0003 12.1818 21.9507 12.3602 21.8569 12.516C21.763 12.6717 21.6285 12.799 21.4678 12.884L4.46777 21.884C4.29903 21.9732 4.10828 22.0123 3.91804 21.9967C3.7278 21.981 3.54601 21.9112 3.39417 21.7955C3.24232 21.6798 3.12675 21.5231 3.06112 21.3439C2.99548 21.1646 2.98252 20.9703 3.02377 20.784L4.97576 12L3.02377 3.21697C2.98238 3.03056 2.99524 2.83621 3.0608 2.65687C3.12637 2.47754 3.24191 2.32073 3.39377 2.20497ZM6.80177 13L5.44577 19.103L16.9738 13H6.80177ZM16.9738 11H6.80177L5.44577 4.89697L16.9738 11Z" fill="#367BF2"/>
</svg>
