<?xml version="1.0" encoding="utf-8"?>
<!-- Generator: Adobe Illustrator 24.0.0, SVG Export Plug-In . SVG Version: 6.00 Build 0)  -->
<svg version="1.1" id="Слой_1" xmlns="http://www.w3.org/2000/svg" xmlns:xlink="http://www.w3.org/1999/xlink" x="0px" y="0px"
	 viewBox="0 0 28 28" style="enable-background:new 0 0 28 28;" xml:space="preserve">
<style type="text/css">
	.st0{fill:#9CA2B8;}
</style>
<path class="st0" d="M10.9,16.6c0,0-2.9,0.2-4,0c-1.1-0.2-1.4-0.3-1.9-0.9c-0.5-0.6-0.3-1.5-0.2-1.7c0.1-0.3,0.3-0.5,0-0.8
	c-0.3-0.3-0.3-1.1-0.2-1.7C4.7,10.9,5,10.5,5,10.5S5,9,5.5,8.2C6,7.4,6,7.7,6,7.1s0.5-1.3,1.5-1.6s3.4-0.6,6.8-0.6
	c0,0,1.8,0,2.5,1.2c0.7,1.1,0.5,3,0.5,3s0.1,3.2,0,3.6c0,0.5-0.1,1.8-1.5,3.9L10.9,16.6z"/>
<path class="st0" d="M16,16.3c0,0-1.6,2.4-1.6,2.9c0,0.5,0.1,1.8,0,2.6S14.1,23,13,23c-1.1,0-2.1-0.7-2.4-1.9
	c-0.3-1.2,0.2-2.9,0.2-2.9s0.3-0.8,0.3-1c0-0.2,0.3-0.7-0.2-0.7l-0.2,0"/>
<path class="st0" d="M22.5,5.4c0,0,0.6,0.4,0.8,1.7c0.2,1.3,0.3,5.6,0.2,6.6c-0.1,1-0.4,1.7-1.6,1.8c-1.2,0.1-1.7,0-2-0.1
	c-0.3-0.1-1-0.3-1.1-1c-0.1-0.7,0.1-1-0.1-7.3c0,0-0.2-0.8,0.7-1.7C20.1,4.6,22.5,5.4,22.5,5.4z"/>
</svg>
