<?xml version="1.0" encoding="utf-8"?>
<!-- Generator: Adobe Illustrator 24.0.0, SVG Export Plug-In . SVG Version: 6.00 Build 0)  -->
<svg version="1.1" id="Слой_1" xmlns="http://www.w3.org/2000/svg" xmlns:xlink="http://www.w3.org/1999/xlink" x="0px" y="0px"
	 viewBox="0 0 28 28" style="enable-background:new 0 0 28 28;" xml:space="preserve">
<style type="text/css">
	.st0{fill:#9CA2B8;}
</style>
<path class="st0" d="M17.1,11.3c0,0,2.9-0.2,4,0c1.1,0.2,1.4,0.3,1.9,0.9c0.5,0.6,0.3,1.5,0.3,1.7c-0.1,0.3-0.3,0.5,0,0.8
	c0.3,0.3,0.4,1.1,0.2,1.7C23.3,17,23,17.3,23,17.3s0,1.6-0.5,2.3C22,20.4,22,20.1,22,20.7s-0.5,1.3-1.5,1.7S17.2,23,13.8,23
	c0,0-1.8,0-2.5-1.2c-0.7-1.1-0.5-3-0.5-3s-0.1-3.2-0.1-3.6c0-0.5,0.1-1.8,1.5-3.9H17.1z"/>
<path class="st0" d="M12,11.6c0,0,1.6-2.4,1.6-2.9S13.5,6.9,13.6,6c0.1-0.8,0.3-1.1,1.4-1.1s2.1,0.7,2.4,1.9
	c0.4,1.2-0.2,2.9-0.2,2.9s-0.3,0.8-0.3,1s-0.3,0.7,0.2,0.7l0.2,0"/>
<path class="st0" d="M5.5,22.5c0,0-0.6-0.3-0.8-1.7c-0.3-1.3-0.3-5.6-0.2-6.6s0.4-1.7,1.6-1.8c1.2-0.1,1.7,0,2,0.1
	c0.4,0.1,1,0.3,1.1,1c0.1,0.7-0.1,1,0.1,7.3c0,0,0.2,0.8-0.7,1.7C7.9,23.4,5.5,22.5,5.5,22.5z"/>
</svg>
