<svg width="24" height="24" viewBox="0 0 24 24" fill="none" xmlns="http://www.w3.org/2000/svg">
<path fill-rule="evenodd" clip-rule="evenodd" d="M9 5.00049C9 4.47006 9.21071 3.96135 9.58579 3.58627C9.96086 3.2112 10.4696 3.00049 11 3.00049H13C13.5304 3.00049 14.0391 3.2112 14.4142 3.58627C14.7893 3.96135 15 4.47006 15 5.00049V6.00049H19C19.2652 6.00049 19.5196 6.10585 19.7071 6.29338C19.8946 6.48092 20 6.73527 20 7.00049C20 7.2657 19.8946 7.52006 19.7071 7.70759C19.5196 7.89513 19.2652 8.00049 19 8.00049H18V18.0005C18 18.7961 17.6839 19.5592 17.1213 20.1218C16.5587 20.6844 15.7956 21.0005 15 21.0005H9C8.20435 21.0005 7.44129 20.6844 6.87868 20.1218C6.31607 19.5592 6 18.7961 6 18.0005V8.00049H5C4.73478 8.00049 4.48043 7.89513 4.29289 7.70759C4.10536 7.52006 4 7.2657 4 7.00049C4 6.73527 4.10536 6.48092 4.29289 6.29338C4.48043 6.10585 4.73478 6.00049 5 6.00049H9V5.00049ZM10 8.00049H8V18.0005C8 18.2657 8.10536 18.5201 8.29289 18.7076C8.48043 18.8951 8.73478 19.0005 9 19.0005H15C15.2652 19.0005 15.5196 18.8951 15.7071 18.7076C15.8946 18.5201 16 18.2657 16 18.0005V8.00049H10ZM13 6.00049H11V5.00049H13V6.00049ZM10 9.00049C10.2652 9.00049 10.5196 9.10585 10.7071 9.29338C10.8946 9.48092 11 9.73527 11 10.0005V17.0005C11 17.2657 10.8946 17.5201 10.7071 17.7076C10.5196 17.8951 10.2652 18.0005 10 18.0005C9.73478 18.0005 9.48043 17.8951 9.29289 17.7076C9.10536 17.5201 9 17.2657 9 17.0005V10.0005C9 9.73527 9.10536 9.48092 9.29289 9.29338C9.48043 9.10585 9.73478 9.00049 10 9.00049ZM14 9.00049C14.2652 9.00049 14.5196 9.10585 14.7071 9.29338C14.8946 9.48092 15 9.73527 15 10.0005V17.0005C15 17.2657 14.8946 17.5201 14.7071 17.7076C14.5196 17.8951 14.2652 18.0005 14 18.0005C13.7348 18.0005 13.4804 17.8951 13.2929 17.7076C13.1054 17.5201 13 17.2657 13 17.0005V10.0005C13 9.73527 13.1054 9.48092 13.2929 9.29338C13.4804 9.10585 13.7348 9.00049 14 9.00049Z" fill="#BEC2CD"/>
</svg>
