<svg width="22" height="17" viewBox="0 0 22 17" fill="none" xmlns="http://www.w3.org/2000/svg">
<path fill-rule="evenodd" clip-rule="evenodd" d="M6.99994 7.00067C6.99994 5.9398 7.42137 4.92238 8.17152 4.17224C8.92166 3.42209 9.93908 3.00067 10.9999 3.00067C12.0608 3.00067 13.0782 3.42209 13.8284 4.17224C14.5785 4.92238 14.9999 5.9398 14.9999 7.00067V8.00067H15.9999C16.4596 8.00067 16.9147 8.0912 17.3393 8.26709C17.764 8.44298 18.1498 8.70079 18.4748 9.02579C18.7998 9.3508 19.0576 9.73663 19.2335 10.1613C19.4094 10.5859 19.4999 11.041 19.4999 11.5007C19.4999 11.9603 19.4094 12.4154 19.2335 12.8401C19.0576 13.2647 18.7998 13.6505 18.4748 13.9755C18.1498 14.3005 17.764 14.5584 17.3393 14.7342C16.9147 14.9101 16.4596 15.0007 15.9999 15.0007H15.8999C15.6347 15.0007 15.3804 15.106 15.1928 15.2936C15.0053 15.4811 14.8999 15.7354 14.8999 16.0007C14.8999 16.2659 15.0053 16.5202 15.1928 16.7078C15.3804 16.8953 15.6347 17.0007 15.8999 17.0007H15.9999C17.3791 17.0024 18.7085 16.486 19.7248 15.5538C20.7411 14.6215 21.3701 13.3415 21.4871 11.9673C21.6042 10.5931 21.2006 9.22519 20.3566 8.13452C19.5125 7.04386 18.2895 6.3101 16.9299 6.07867C16.7103 4.66355 15.9919 3.37363 14.9044 2.4419C13.8169 1.51016 12.432 0.998047 10.9999 0.998047C9.56789 0.998047 8.18304 1.51016 7.09554 2.4419C6.00804 3.37363 5.28958 4.66355 5.06994 6.07867C3.71483 6.31524 2.49749 7.05086 1.65788 8.14052C0.818267 9.23019 0.417299 10.5948 0.534009 11.9655C0.650719 13.3361 1.27664 14.6134 2.28839 15.5454C3.30015 16.4774 4.62434 16.9966 5.99994 17.0007H6.09994C6.36516 17.0007 6.61952 16.8953 6.80705 16.7078C6.99459 16.5202 7.09995 16.2659 7.09995 16.0007C7.09995 15.7354 6.99459 15.4811 6.80705 15.2936C6.61952 15.106 6.36516 15.0007 6.09994 15.0007H5.99994C5.54032 15.0007 5.08519 14.9101 4.66055 14.7342C4.23591 14.5584 3.85008 14.3005 3.52507 13.9755C3.20007 13.6505 2.94226 13.2647 2.76637 12.8401C2.59047 12.4154 2.49994 11.9603 2.49994 11.5007C2.49994 11.041 2.59047 10.5859 2.76637 10.1613C2.94226 9.73663 3.20007 9.3508 3.52507 9.02579C3.85008 8.70079 4.23591 8.44298 4.66055 8.26709C5.08519 8.0912 5.54032 8.00067 5.99994 8.00067H6.99994V7.00067ZM11.9999 8.00067C11.9999 7.73545 11.8946 7.4811 11.7071 7.29356C11.5195 7.10602 11.2652 7.00067 10.9999 7.00067C10.7347 7.00067 10.4804 7.10602 10.2928 7.29356C10.1053 7.4811 9.99994 7.73545 9.99994 8.00067V13.5867L8.70694 12.2937C8.51834 12.1115 8.26574 12.0107 8.00354 12.013C7.74135 12.0153 7.49053 12.1204 7.30513 12.3058C7.11972 12.4913 7.01455 12.7421 7.01227 13.0043C7.00999 13.2665 7.11079 13.5191 7.29294 13.7077L10.2929 16.7077C10.4805 16.8951 10.7348 17.0005 10.9999 17.0005C11.2651 17.0005 11.5194 16.8951 11.7069 16.7077L14.7069 13.7077C14.8891 13.5191 14.9899 13.2665 14.9876 13.0043C14.9853 12.7421 14.8802 12.4913 14.6948 12.3058C14.5094 12.1204 14.2585 12.0153 13.9963 12.013C13.7341 12.0107 13.4815 12.1115 13.2929 12.2937L11.9999 13.5867V8.00067Z" fill="#BEC2CD"/>
</svg>
