<svg width="18" height="19" viewBox="0 0 18 19" fill="none" xmlns="http://www.w3.org/2000/svg">
    <g clip-path="url(#clip0_1_406)">
        <path d="M8.99863 18.4863C13.9654 18.4863 17.9918 14.4599 17.9918 9.49313C17.9918 4.52636 13.9654 0.5 8.99863 0.5C4.03186 0.5 0.00549316 4.52636 0.00549316 9.49313C0.00549316 14.4599 4.03186 18.4863 8.99863 18.4863Z"
              fill="#3A5A98"/>
        <path d="M15.3605 3.14725C18.8725 6.65928 18.8727 12.3537 15.3603 15.866C11.8481 19.378 6.15364 19.378 2.6416 15.866L15.3605 3.14725Z"
              fill="#345387"/>
        <path d="M17.9336 10.5061L11.4282 4.00055L8.05066 7.37812L8.25188 7.57934L6.32886 9.50221L7.90284 11.0762L7.69582 11.2831L9.39986 12.9872L7.43536 14.9517L10.7913 18.3076C14.5758 17.5418 17.4969 14.3998 17.9336 10.5061Z"
              fill="#2E4D72"/>
        <path d="M7.42636 6.15234C7.42636 6.42824 7.42636 7.66056 7.42636 7.66056H6.32141V9.50491H7.42636V14.9851H9.69614V9.50491H11.2193C11.2193 9.50491 11.362 8.62038 11.431 7.65361C11.2327 7.65361 9.70479 7.65361 9.70479 7.65361C9.70479 7.65361 9.70479 6.58051 9.70479 6.39246C9.70479 6.20414 9.95216 5.95067 10.1968 5.95067C10.4411 5.95067 10.9564 5.95067 11.4335 5.95067C11.4335 5.69932 11.4335 4.83183 11.4335 4.03064C10.7965 4.03064 10.0717 4.03064 9.75208 4.03064C7.37015 4.03053 7.42636 5.87659 7.42636 6.15234Z"
              fill="white"/>
    </g>
    <defs>
        <clipPath id="clip0_1_406">
            <rect width="18" height="18" fill="white" transform="translate(0 0.5)"/>
        </clipPath>
    </defs>
</svg>
