<svg width="18" height="19" viewBox="0 0 18 19" fill="none" xmlns="http://www.w3.org/2000/svg">
    <g clip-path="url(#clip0_1_421)">
        <path d="M9 0.5C4.0294 0.5 0 4.5294 0 9.5C0 14.4706 4.0294 18.5 9 18.5C13.9706 18.5 18 14.4706 18 9.5C18 4.5294 13.9706 0.5 9 0.5Z"
              fill="url(#paint0_radial_1_421)"/>
        <path d="M9 0.5C4.0294 0.5 0 4.5294 0 9.5C0 14.4706 4.0294 18.5 9 18.5C13.9706 18.5 18 14.4706 18 9.5C18 4.5294 13.9706 0.5 9 0.5Z"
              fill="url(#paint1_radial_1_421)"/>
        <path d="M7.32841 9.5C7.32841 8.57665 8.07675 7.82793 9.00014 7.82793C9.92353 7.82793 10.6723 8.57665 10.6723 9.5C10.6723 10.4234 9.92353 11.1721 9.00014 11.1721C8.07675 11.1721 7.32841 10.4234 7.32841 9.5ZM6.42448 9.5C6.42448 10.9225 7.5776 12.0756 9.00014 12.0756C10.4227 12.0756 11.5758 10.9225 11.5758 9.5C11.5758 8.07752 10.4227 6.92444 9.00014 6.92444C7.5776 6.92444 6.42452 8.07744 6.42452 9.5H6.42448ZM11.0759 6.82232C11.0758 6.94137 11.1111 7.05775 11.1772 7.15676C11.2433 7.25577 11.3373 7.33295 11.4472 7.37855C11.5572 7.42415 11.6782 7.43612 11.795 7.41294C11.9118 7.38976 12.019 7.33248 12.1033 7.24834C12.1875 7.1642 12.2448 7.05697 12.2681 6.94022C12.2914 6.82348 12.2795 6.70245 12.234 6.59245C12.1885 6.48245 12.1114 6.38841 12.0124 6.32224C11.9135 6.25606 11.7971 6.22071 11.678 6.22067H11.6778C11.5182 6.22074 11.3652 6.28414 11.2524 6.39695C11.1395 6.50976 11.076 6.66275 11.0759 6.82232ZM6.97367 13.5828C6.48463 13.5605 6.21882 13.4791 6.04218 13.4102C5.80799 13.3191 5.6409 13.2105 5.46522 13.0351C5.28954 12.8596 5.18079 12.6927 5.09002 12.4585C5.02116 12.282 4.9397 12.0161 4.91747 11.5271C4.89315 10.9984 4.8883 10.8395 4.8883 9.50008C4.8883 8.16062 4.89355 8.00224 4.91747 7.47309C4.93974 6.98407 5.0218 6.71872 5.09002 6.54164C5.18119 6.30746 5.28978 6.14037 5.46522 5.9647C5.64066 5.78902 5.80759 5.68028 6.04218 5.58952C6.21874 5.52066 6.48463 5.4392 6.97367 5.41697C7.5024 5.39266 7.66123 5.3878 9.00014 5.3878C10.3391 5.3878 10.498 5.39298 11.0272 5.41705C11.5163 5.43932 11.7816 5.52138 11.9587 5.5896C12.1929 5.68036 12.36 5.78935 12.5357 5.96478C12.7113 6.14021 12.8197 6.30754 12.9109 6.54172C12.9797 6.71827 13.0612 6.98415 13.0834 7.47317C13.1077 8.00232 13.1126 8.1607 13.1126 9.50016C13.1126 10.8396 13.1077 10.998 13.0834 11.5272C13.0611 12.0162 12.9793 12.282 12.9109 12.4586C12.8197 12.6928 12.7111 12.8599 12.5357 13.0351C12.3602 13.2104 12.1929 13.3192 11.9587 13.4103C11.7821 13.4792 11.5163 13.5606 11.0272 13.5829C10.4985 13.6072 10.3397 13.612 9.00014 13.612C7.66063 13.612 7.50224 13.6072 6.97367 13.5829V13.5828ZM6.93214 4.51457C6.39816 4.53888 6.03327 4.62355 5.71461 4.74754C5.3848 4.87559 5.10523 5.04737 4.82606 5.32609C4.54689 5.6048 4.37554 5.88441 4.24749 6.21461C4.1235 6.53345 4.03883 6.89812 4.01451 7.43208C3.98979 7.96689 3.98413 8.13787 3.98413 9.5C3.98413 10.8621 3.98979 11.0331 4.01451 11.5679C4.03883 12.1019 4.1235 12.4666 4.24749 12.7854C4.37554 13.1152 4.54693 13.3953 4.82606 13.6739C5.10519 13.9525 5.3844 14.1241 5.71461 14.2525C6.03387 14.3765 6.39816 14.4611 6.93214 14.4854C7.46725 14.5098 7.63795 14.5158 9.00014 14.5158C10.3623 14.5158 10.5333 14.5102 11.0681 14.4854C11.6022 14.4611 11.9668 14.3765 12.2857 14.2525C12.6155 14.1241 12.8951 13.9526 13.1742 13.6739C13.4534 13.3952 13.6244 13.1152 13.7528 12.7854C13.8768 12.4666 13.9619 12.1019 13.9858 11.5679C14.0101 11.0327 14.0158 10.8621 14.0158 9.5C14.0158 8.13787 14.0101 7.96689 13.9858 7.43208C13.9615 6.89808 13.8768 6.53325 13.7528 6.21461C13.6244 5.88481 13.453 5.60525 13.1742 5.32609C12.8955 5.04693 12.6155 4.87559 12.2861 4.74754C11.9668 4.62355 11.6021 4.53848 11.0685 4.51457C10.5336 4.49013 10.3627 4.48419 9.00074 4.48419C7.63876 4.48419 7.46745 4.48985 6.93234 4.51457"
              fill="white"/>
    </g>
    <defs>
        <radialGradient id="paint0_radial_1_421" cx="0" cy="0" r="1" gradientUnits="userSpaceOnUse"
                        gradientTransform="translate(1.16494 18.1057) scale(22.8533)">
            <stop offset="0.09" stop-color="#FA8F21"/>
            <stop offset="0.78" stop-color="#D82D7E"/>
        </radialGradient>
        <radialGradient id="paint1_radial_1_421" cx="0" cy="0" r="1" gradientUnits="userSpaceOnUse"
                        gradientTransform="translate(12.468 17.5277) scale(20.1111)">
            <stop offset="0.64" stop-color="#8C3AAA" stop-opacity="0"/>
            <stop offset="1" stop-color="#8C3AAA"/>
        </radialGradient>
        <clipPath id="clip0_1_421">
            <rect width="18" height="18" fill="white" transform="translate(0 0.5)"/>
        </clipPath>
    </defs>
</svg>
