<svg width="24" height="22" viewBox="0 0 24 22" fill="none" xmlns="http://www.w3.org/2000/svg">
<path d="M7.9822 6.31253C9.0917 6.31253 9.99112 5.41311 9.99112 4.30361C9.99112 3.19411 9.0917 2.29468 7.9822 2.29468C6.87269 2.29468 5.97327 3.19411 5.97327 4.30361C5.97327 5.41311 6.87269 6.31253 7.9822 6.31253Z" stroke="#636D79" stroke-width="2" stroke-linecap="round" stroke-linejoin="round"/>
<path d="M16.018 13.0089C17.1275 13.0089 18.0269 12.1095 18.0269 11C18.0269 9.89052 17.1275 8.99109 16.018 8.99109C14.9085 8.99109 14.009 9.89052 14.009 11C14.009 12.1095 14.9085 13.0089 16.018 13.0089Z" stroke="#636D79" stroke-width="2" stroke-linecap="round" stroke-linejoin="round"/>
<path d="M7.9822 19.7054C9.0917 19.7054 9.99112 18.8059 9.99112 17.6964C9.99112 16.5869 9.0917 15.6875 7.9822 15.6875C6.87269 15.6875 5.97327 16.5869 5.97327 17.6964C5.97327 18.8059 6.87269 19.7054 7.9822 19.7054Z" stroke="#636D79" stroke-width="2" stroke-linecap="round" stroke-linejoin="round"/>
<path d="M5.9733 4.30359H1.95544" stroke="#636D79" stroke-width="2" stroke-linecap="round" stroke-linejoin="round"/>
<path d="M11.3304 11H1.95544" stroke="#636D79" stroke-width="2" stroke-linecap="round" stroke-linejoin="round"/>
<path d="M5.9733 17.6964H1.95544" stroke="#636D79" stroke-width="2" stroke-linecap="round" stroke-linejoin="round"/>
<path d="M22.0447 17.6964H12.6697" stroke="#636D79" stroke-width="2" stroke-linecap="round" stroke-linejoin="round"/>
<path d="M22.0447 11H18.0269" stroke="#636D79" stroke-width="2" stroke-linecap="round" stroke-linejoin="round"/>
<path d="M22.0447 4.30359H12.6697" stroke="#636D79" stroke-width="2" stroke-linecap="round" stroke-linejoin="round"/>
</svg>
