<svg width="18" height="19" viewBox="0 0 18 19" fill="none" xmlns="http://www.w3.org/2000/svg">
    <g clip-path="url(#clip0_1_413)">
        <path d="M9 0.5C4.0294 0.5 0 4.5294 0 9.5C0 14.4706 4.0294 18.5 9 18.5C13.9706 18.5 18 14.4706 18 9.5C18 4.5294 13.9706 0.5 9 0.5Z"
              fill="#40B3E0"/>
        <path d="M13.3792 5.67716L11.7717 13.7819C11.7717 13.7819 11.5469 14.344 10.9287 14.0742L7.21911 11.2302L5.87024 10.5782L3.59956 9.81379C3.59956 9.81379 3.2511 9.69018 3.21735 9.42039C3.18367 9.1506 3.61081 9.00449 3.61081 9.00449L12.6373 5.46355C12.6373 5.46355 13.3792 5.13758 13.3792 5.67716Z"
              fill="white"/>
        <path d="M6.93412 13.6909C6.93412 13.6909 6.82584 13.6807 6.69091 13.2535C6.55605 12.8264 5.87036 10.5782 5.87036 10.5782L11.3222 7.116C11.3222 7.116 11.637 6.9249 11.6257 7.116C11.6257 7.116 11.6819 7.14968 11.5133 7.30704C11.3447 7.46447 7.23049 11.1627 7.23049 11.1627"
              fill="#D2E5F1"/>
        <path d="M8.64155 12.3206L7.17427 13.6584C7.17427 13.6584 7.05959 13.7454 6.93408 13.6909L7.21505 11.206"
              fill="#B5CFE4"/>
    </g>
    <defs>
        <clipPath id="clip0_1_413">
            <rect width="18" height="18" fill="white" transform="translate(0 0.5)"/>
        </clipPath>
    </defs>
</svg>
