<svg width="18" height="19" viewBox="0 0 18 19" fill="none" xmlns="http://www.w3.org/2000/svg">
    <g clip-path="url(#clip0_1_428)">
        <path d="M9 0.5C4.0294 0.5 0 4.5294 0 9.5C0 14.4706 4.0294 18.5 9 18.5C13.9706 18.5 18 14.4706 18 9.5C18 4.5294 13.9706 0.5 9 0.5Z"
              fill="#010101"/>
        <g clip-path="url(#clip1_1_428)">
            <path fill-rule="evenodd" clip-rule="evenodd"
                  d="M10.9289 8.09913C11.5125 8.55907 12.2276 8.82971 12.9999 8.82971V7.19142C12.8537 7.19148 12.708 7.17467 12.565 7.14124V8.43083C11.7928 8.43083 11.0778 8.16018 10.4939 7.70024V11.0435C10.4939 12.7159 9.26407 14.0716 7.747 14.0716C7.18097 14.0716 6.65484 13.883 6.21777 13.5595C6.7166 14.1217 7.41223 14.4705 8.18183 14.4705C9.699 14.4705 10.9289 13.1148 10.9289 11.4423V8.09913H10.9289ZM11.4654 6.4463C11.1671 6.08707 10.9713 5.62277 10.9289 5.10948V4.89877H10.5167C10.6204 5.55113 10.9743 6.10848 11.4654 6.4463ZM7.17729 12.2761C7.01065 12.0352 6.92057 11.7405 6.92097 11.4375C6.92097 10.6726 7.48353 10.0524 8.17756 10.0524C8.30688 10.0523 8.43545 10.0742 8.55873 10.1173V8.44242C8.41469 8.42066 8.26932 8.41144 8.12396 8.41483V9.71848C8.00062 9.67538 7.872 9.6535 7.74263 9.6536C7.0486 9.6536 6.48609 10.2738 6.48609 11.0388C6.48609 11.5796 6.76727 12.048 7.17729 12.2761Z"
                  fill="#EE1D52"/>
            <path fill-rule="evenodd" clip-rule="evenodd"
                  d="M10.494 7.70025C11.0779 8.16019 11.7928 8.43083 12.5651 8.43083V7.14124C12.134 7.04007 11.7524 6.79172 11.4655 6.4463C10.9744 6.10848 10.6205 5.55113 10.5168 4.89877H9.43419V11.4422C9.43174 12.2051 8.87014 12.8227 8.1776 12.8227C7.7695 12.8227 7.40694 12.6083 7.17734 12.2761C6.76731 12.048 6.48614 11.5796 6.48614 11.0388C6.48614 10.2738 7.04864 9.6536 7.74267 9.6536C7.87563 9.6536 8.00379 9.67642 8.124 9.71848V8.41483C6.6336 8.44878 5.43494 9.79125 5.43494 11.4423C5.43494 12.2665 5.73344 13.0136 6.21787 13.5595C6.65494 13.8831 7.18107 14.0717 7.7471 14.0717C9.26416 14.0717 10.494 12.7159 10.494 11.0435V7.70025Z"
                  fill="white"/>
            <path fill-rule="evenodd" clip-rule="evenodd"
                  d="M12.565 7.14129V6.79259C12.1763 6.79324 11.7953 6.67323 11.4654 6.44629C11.7574 6.79864 12.1418 7.04161 12.565 7.14129ZM10.5167 4.89882C10.5068 4.83649 10.4993 4.77373 10.494 4.71071V4.5H8.99915V11.0435C8.99675 11.8063 8.4352 12.4239 7.74261 12.4239C7.53925 12.4239 7.34731 12.3708 7.17728 12.2762C7.40688 12.6084 7.76944 12.8228 8.17755 12.8228C8.87003 12.8228 9.43168 12.2051 9.43413 11.4423V4.89882H10.5167ZM8.124 8.41488V8.04365C7.99909 8.02481 7.87316 8.0154 7.74709 8.01547C6.22987 8.01547 5 9.37124 5 11.0435C5 12.092 5.48336 13.016 6.21787 13.5595C5.73344 13.0136 5.43493 12.2665 5.43493 11.4423C5.43493 9.79129 6.63355 8.44882 8.124 8.41488Z"
                  fill="#69C9D0"/>
        </g>
    </g>
    <defs>
        <clipPath id="clip0_1_428">
            <rect width="18" height="18" fill="white" transform="translate(0 0.5)"/>
        </clipPath>
        <clipPath id="clip1_1_428">
            <rect width="8" height="10" fill="white" transform="translate(5 4.5)"/>
        </clipPath>
    </defs>
</svg>
